<svg width="67" height="32" viewBox="0 0 67 32" fill="none" xmlns="http://www.w3.org/2000/svg">
<g clip-path="url(#clip0_57_1052)">
<path d="M40.9883 0.770284C41.1837 -1.33817 42.4858 1.61888 43.3671 0.966886C43.8297 -0.820588 45.7499 3.38228 45.7778 0.878616C46.707 2.04619 47.6183 3.3542 48.2145 4.63412C54.336 4.96312 60.1684 7.61324 64.7247 11.6697C65.7317 13.0078 67.9231 14.5465 66.5711 16.4242C61.3987 20.282 55.6261 23.8008 49.0599 24.4809C48.3281 27.7389 46.2743 30.72 43.0979 31.9999H42.747C41.1199 30.7922 41.3412 28.2143 42.5237 26.7679C43.0421 25.9755 44.7529 25.9735 44.6433 24.8079C38.9943 24.6574 33.4031 23.6223 27.7821 23.2531C27.138 24.3706 26.9287 27.1832 26.165 24.7678C25.0264 25.7046 24.0773 26.9525 22.6217 27.4179C22.851 26.5232 24.0653 25.5261 23.487 24.6534C20.7912 24.3164 18.4183 27.7108 15.8301 26.3446C15.1203 23.9493 14.2948 18.5086 18.6257 19.602C16.1472 17.644 12.9508 16.3681 9.7704 16.4423C6.6199 17.65 3.95992 20.3462 0.50035 20.5489C0.171342 16.0711 -0.634229 11.2403 0.933045 6.93918C5.85421 8.63838 10.7794 13.1723 16.2967 10.1751C15.0545 9.89423 14.0854 8.8731 14.7534 7.54303C16.1312 5.27408 18.7394 3.29401 21.503 3.63305C23.8021 4.23088 27.146 5.81774 28.811 3.92394C30.125 4.25496 29.802 2.97102 31.3414 3.38429C30.119 1.85962 33.2496 3.78953 32.6036 2.09033C33.4749 2.7343 34.9425 2.54171 33.9236 1.30592C34.775 1.64898 35.6424 2.10838 36.5995 1.8516C36.2266 0.102238 38.2326 2.30298 38.8248 1.24975C38.6394 -1.01117 40.4659 1.98801 40.9883 0.770284Z" fill="#483838"/>
</g>
<defs>
<clipPath id="clip0_57_1052">
<rect width="67" height="32" fill="white"/>
</clipPath>
</defs>
</svg>
