<svg width="80" height="75" viewBox="0 0 80 75" fill="none" xmlns="http://www.w3.org/2000/svg">
<path d="M79.9966 62.4749C79.9849 61.976 79.9462 61.4754 79.8354 60.9765C79.7782 60.7279 79.706 60.4792 79.5918 60.239C79.4826 60.0089 79.3331 59.7854 79.1248 59.6091C78.4226 58.7742 77.8934 57.7914 77.4231 56.7902C77.1879 56.2863 76.9695 55.7739 76.7579 55.2582L76.1313 53.7026C75.7231 52.6661 75.3417 51.6195 75.1183 50.5411C75.0058 50.0018 74.9352 49.4575 74.9134 48.9099L74.9066 48.5L74.9184 48.0951L74.9503 47.6769C74.9621 47.5475 74.9789 47.4014 74.994 47.2653C75.1166 46.1549 75.2695 45.0411 75.3232 43.9089C75.3484 43.3428 75.3484 42.7733 75.3031 42.2038L75.2611 41.7771C75.2443 41.636 75.2208 41.4949 75.2023 41.3521C75.1553 41.0682 75.0981 40.7809 75.031 40.5138C74.8999 39.9511 74.6832 39.4068 74.4212 38.8995C74.1591 38.3888 73.855 37.9134 73.5779 37.4346C73.299 36.9575 73.0538 36.4704 72.8925 35.958C72.7295 35.4456 72.6556 34.9098 72.6523 34.3688H72.6204C72.6623 34.0698 72.7094 33.7725 72.7665 33.4785C72.9311 32.6268 73.1579 31.7852 73.4116 30.9503C73.9206 29.2805 74.5488 27.6443 75.1267 25.9812C75.2695 25.5663 75.4123 25.1463 75.545 24.7263L75.7348 24.0896L75.8289 23.7721L75.9129 23.4513L76.0792 22.8096L76.2237 22.1628C76.3278 21.7328 76.395 21.296 76.4807 20.8609C76.6201 19.9874 76.7478 19.1122 76.815 18.2302C76.862 17.7901 76.8738 17.3483 76.9057 16.9081C76.9158 16.4663 76.941 16.0245 76.9376 15.5827V14.9208L76.9225 14.259C76.9174 13.8172 76.8838 13.377 76.8637 12.9352C76.8015 12.055 76.7259 11.1764 76.61 10.2995C76.5579 9.85936 76.4908 9.42595 76.4269 8.99254C76.3614 8.55241 76.2808 8.11397 76.1766 7.68056C75.9734 6.81206 75.6844 5.95868 75.2846 5.15233C74.8865 4.34599 74.3674 3.59508 73.7391 2.94497C73.1025 2.30157 72.3717 1.75561 71.557 1.35412C71.1505 1.15589 70.7305 0.986227 70.3005 0.853516C69.8721 0.720805 69.437 0.614973 69.0019 0.524259C68.2611 0.37307 67.5237 0.250438 66.7946 0.105969V0.0656514L66.593 0.0303738C66.1512 -0.0469007 65.6506 0.013575 65.2508 0.295795C65.0526 0.433545 64.888 0.625052 64.7838 0.845117C64.678 1.06518 64.6309 1.30876 64.6377 1.54731C64.6545 2.02775 64.8728 2.45612 65.15 2.79546C65.4322 3.13648 65.7783 3.40526 66.1411 3.62532C66.8736 4.06209 67.6782 4.31911 68.4862 4.4955C68.6878 4.54086 68.8911 4.57781 69.0977 4.61309L69.4001 4.66013C69.4891 4.67357 69.5596 4.69205 69.6369 4.72396C69.941 4.84827 70.203 5.12882 70.413 5.44127C70.8363 6.07963 71.1102 6.84061 71.347 7.59992C71.5822 8.36595 71.7636 9.14877 71.9484 9.94C72.1466 10.706 72.1987 11.4972 72.2088 12.2969C72.2155 13.0965 72.1735 13.9012 72.1063 14.7025C72.0374 15.5054 71.9451 16.3067 71.8359 17.1081L71.4949 19.5153C71.2714 21.1196 71.048 22.7222 70.6549 24.2761C70.6062 24.471 70.5508 24.6625 70.4987 24.8557C70.4382 25.0455 70.3895 25.232 70.3206 25.4268L70.2232 25.7158L70.1224 25.9913C70.0502 26.1761 69.9763 26.3592 69.8939 26.5389C69.5697 27.2545 69.1414 27.9198 68.5299 28.3666C67.9235 28.8202 67.1591 29.0419 66.3814 29.183C65.6002 29.3225 64.7939 29.3913 63.9909 29.4552C62.3833 29.5795 60.7656 29.5929 59.1462 29.5963L54.2813 29.5879L49.4148 29.5728L46.9806 29.5795C46.1693 29.5829 45.3579 29.5929 44.5465 29.6064C42.9221 29.6299 41.296 29.6853 39.6783 29.7592C38.0555 29.8432 36.4412 29.9155 34.8235 29.9424C33.2058 29.9676 31.5881 29.9608 29.9805 29.8533C29.1775 29.7979 28.3762 29.7189 27.5951 29.5694C27.207 29.4938 26.8206 29.3981 26.4679 29.2553C26.2932 29.183 26.1252 29.099 25.9975 28.9932C25.8648 28.8874 25.7909 28.7698 25.7892 28.6505L25.7858 28.4792L25.6162 28.4372C24.835 28.2423 24.0909 27.9231 23.4374 27.4612C22.7806 27.0026 22.2229 26.4112 21.7239 25.7678C21.2233 25.1228 20.7765 24.429 20.3045 23.7436C20.0693 23.4009 19.8274 23.0599 19.5704 22.7273C19.3167 22.3963 19.0429 22.0654 18.759 21.7596C18.4717 21.4455 18.1542 21.1582 17.8334 20.8895C17.5109 20.6207 17.185 20.3653 16.8675 20.105C16.5517 19.8446 16.2442 19.5775 15.9687 19.2869C15.8327 19.1424 15.6983 18.9895 15.5824 18.835C15.5236 18.7594 15.4665 18.6821 15.4093 18.5914L15.3237 18.462L15.2514 18.3377C14.8483 17.6406 14.5375 16.8762 14.2385 16.1085C13.9395 15.3391 13.6657 14.5563 13.3263 13.7852L13.1651 13.419L12.9467 13.7567L12.7384 14.0792C12.6695 14.133 12.6006 14.1985 12.5267 14.2741C12.4578 14.3564 12.3738 14.4454 12.3066 14.5479C12.2344 14.6487 12.1655 14.7579 12.0983 14.8721C11.9656 15.1006 11.843 15.3492 11.7237 15.5911C11.6885 15.6634 11.6549 15.7356 11.6196 15.8078L11.1358 16.5571C11.0669 16.5822 10.998 16.5856 10.9191 16.5671C10.8233 16.5419 10.7192 16.4848 10.6217 16.4109C10.4235 16.2597 10.2455 16.0548 10.0791 15.8381C9.91284 15.6214 9.7583 15.3895 9.60711 15.1543C9.45424 14.9175 9.30977 14.6773 9.14011 14.4337L8.84445 14.0087L8.7571 14.5194C8.71006 14.7999 8.7319 15.067 8.7655 15.3207C8.80077 15.576 8.85285 15.8196 8.89989 16.0598C8.94524 16.2983 8.9906 16.5352 8.99396 16.7536C8.99396 16.8628 8.98388 16.9636 8.95532 17.0442C8.92676 17.1265 8.88309 17.1769 8.81757 17.2206L8.4732 17.4524L8.59751 17.4978C8.24138 17.5751 7.90037 17.691 7.56776 17.822C6.69927 18.1731 5.8879 18.6267 5.11348 19.139C4.9203 19.2701 4.73047 19.3977 4.54065 19.554C4.35418 19.7102 4.18452 19.8849 4.03501 20.0747C3.73264 20.4561 3.52769 20.876 3.27907 21.2355C3.21692 21.3262 3.1514 21.4136 3.08421 21.4942C3.05397 21.5345 3.01366 21.5782 2.97502 21.6202L2.92126 21.679L2.86583 21.7344C2.71464 21.8772 2.53825 21.9999 2.34843 22.1091C1.9671 22.3291 1.54042 22.5005 1.12717 22.7407C0.922229 22.8616 0.718966 23.0011 0.539221 23.1775C0.361156 23.3505 0.208288 23.5689 0.110856 23.7973C-1.42986e-05 24.0493 -0.015133 24.3097 -0.0084136 24.5516C-1.42939e-05 24.7969 0.0369426 25.0321 0.0856586 25.2639C0.18477 25.7258 0.330918 26.171 0.503944 26.6044C0.676969 27.0378 0.885272 27.4645 1.15237 27.8576C1.41779 28.2524 1.75712 28.6085 2.15189 28.8807C2.34675 29.0184 2.55673 29.1377 2.77008 29.2418C2.82383 29.2654 2.86415 29.2906 2.94478 29.3208C3.00862 29.3426 3.06573 29.3578 3.12453 29.3712C3.24044 29.3997 3.35299 29.4249 3.46722 29.4485C3.92078 29.5425 4.37266 29.6232 4.82622 29.6971C5.05301 29.734 5.27979 29.7693 5.50993 29.8012L5.8543 29.8466L6.03068 29.8634L6.12476 29.8684C6.14156 29.8684 6.15835 29.8684 6.18019 29.8684C6.18523 29.8684 6.19531 29.8684 6.20371 29.8668C6.7547 30.0717 7.26874 30.369 7.67359 30.7857C8.09523 31.2123 8.39089 31.7482 8.61767 32.3194C8.84781 32.8905 9.0158 33.4936 9.24594 34.0883C9.35849 34.3856 9.50128 34.6847 9.65078 34.9585C9.79861 35.234 9.94308 35.5112 10.0825 35.7883C10.6453 36.9021 11.1543 38.0444 11.5809 39.2153C11.7943 39.7999 11.9841 40.3946 12.1437 40.9943C12.3033 41.5907 12.4242 42.2105 12.5704 42.822C12.8593 44.045 13.1987 45.2612 13.627 46.4472C13.7396 46.7412 13.8454 47.0385 13.9647 47.3308C14.089 47.6214 14.2082 47.9154 14.3376 48.2027L14.7441 49.0544L15.1742 49.8926C15.7504 51.003 16.34 52.1118 16.6659 53.3045C16.8288 53.8991 16.9195 54.5123 16.9145 55.1255C16.9128 55.4346 16.8876 55.7336 16.8423 56.0444L16.7146 56.9767C16.5365 58.2198 16.3954 59.4663 16.2409 60.7094L16.0107 62.5741L15.7554 64.437C15.574 65.6718 15.3321 66.9031 15.1221 68.1412C15.0095 68.7594 14.9692 69.3927 14.6769 69.9252C14.5358 70.1923 14.346 70.4309 14.1159 70.6291C13.8857 70.8256 13.6203 70.9802 13.3414 71.1095C12.7804 71.3666 12.1689 71.511 11.5742 71.7294C11.2769 71.8386 10.9812 71.973 10.7192 72.1645C10.5915 72.2603 10.4638 72.3846 10.3714 72.5038C10.2707 72.6382 10.1833 72.7659 10.1077 72.912C9.95652 73.1926 9.85405 73.5386 9.95484 73.8729C10.0573 74.2056 10.3362 74.4357 10.6167 74.5818C10.904 74.733 11.2131 74.8221 11.5238 74.8859C11.8363 74.9481 12.1521 74.98 12.4696 74.9867L13.4103 74.9901C13.7244 74.9901 14.0403 74.9917 14.3578 74.9413C14.5173 74.9195 14.6719 74.8725 14.8231 74.8154C14.9709 74.7498 15.1154 74.6776 15.2447 74.5818C15.3774 74.4911 15.4967 74.387 15.6143 74.2761C15.6748 74.2224 15.7252 74.1652 15.7823 74.1098C15.836 74.056 15.8948 73.9939 15.9419 73.9284C16.1317 73.6697 16.2762 73.3891 16.4273 73.1153C16.5768 72.8398 16.7247 72.5643 16.8927 72.3022C17.0606 72.0435 17.2454 71.7849 17.4907 71.6068C17.6133 71.5211 17.7544 71.4606 17.9006 71.4657C18.0467 71.4674 18.1862 71.5345 18.3054 71.6253L18.3474 71.6572L18.3709 71.6101L18.6028 71.1482L18.8211 70.6795C18.9606 70.3653 19.095 70.0479 19.2226 69.727C19.4763 69.087 19.7081 68.4385 19.9383 67.7901C20.1684 67.1417 20.3969 66.4932 20.6488 65.8549C20.7748 65.5357 20.9058 65.2182 21.0453 64.904C21.1847 64.5899 21.3325 64.2808 21.4921 63.9768C21.6467 63.671 21.8163 63.3686 21.9625 63.0579C22.1153 62.7504 22.2598 62.4363 22.3976 62.1222C22.6747 61.4922 22.9284 60.8539 23.1837 60.2138C23.3114 59.8946 23.4408 59.5755 23.5735 59.258C23.7079 58.9405 23.8456 58.6263 23.9901 58.3139C24.1345 58.0031 24.2874 57.694 24.447 57.3899L24.6923 56.9364L24.9493 56.4895L24.6889 56.9347L24.4924 57.2925C24.6335 57.0304 24.7813 56.7633 24.9459 56.4895L24.3832 57.3563C24.6687 56.7667 24.9812 56.1871 25.3491 55.6445C25.4818 55.4497 25.6246 55.2632 25.7741 55.0818C25.8698 55.616 25.9975 56.1418 26.1386 56.6625C26.3889 57.5764 26.6946 58.4735 27.0256 59.3588C27.3599 60.2424 27.7143 61.1176 28.0973 61.9811C28.4803 62.8445 28.8818 63.6979 29.3018 64.5446C29.7218 65.3912 30.1669 66.2228 30.6507 67.0409C30.7717 67.2458 30.896 67.4474 31.0287 67.649C31.0959 67.7498 31.1631 67.8489 31.2387 67.9497C31.2756 68.0001 31.3143 68.0505 31.3579 68.1009L31.3798 68.1261L31.3949 68.1429L31.4251 68.1748L31.4856 68.2386C31.6385 68.4066 31.8333 68.5847 32.0131 68.7426C32.1945 68.9005 32.3793 69.0483 32.5607 69.1978C32.9219 69.4935 33.2713 69.7875 33.5468 70.1335L33.5602 70.1486L33.567 70.157L33.5922 70.1923L33.6426 70.2645C33.6745 70.3116 33.7148 70.362 33.74 70.4073C33.787 70.4964 33.8441 70.5787 33.8761 70.6778C33.9533 70.8676 33.9836 71.0591 33.9584 71.2624C33.9365 71.4673 33.8643 71.6857 33.8139 71.9293C33.7618 72.1729 33.7349 72.4417 33.7753 72.7021C33.8005 72.8297 33.8223 72.9608 33.8693 73.0784L33.9012 73.1691L33.918 73.2144L33.9264 73.2363C33.9298 73.2463 33.9231 73.2312 33.9365 73.2598L33.9416 73.2699L34.0205 73.4278C34.0407 73.4782 34.0894 73.5386 34.1264 73.5958C34.1667 73.6529 34.2053 73.7117 34.254 73.7553C34.3011 73.8024 34.3447 73.8528 34.3951 73.8948L34.553 74.0157C34.9982 74.3097 35.5391 74.3803 36.0313 74.2996C36.2799 74.2644 36.5218 74.1888 36.7469 74.0829C36.9704 73.9771 37.1921 73.8393 37.3668 73.668C37.5499 73.495 37.7095 73.29 37.8288 73.0767C37.948 72.8583 38.0354 72.6265 38.0992 72.3896C38.2219 71.9142 38.2437 71.4253 38.195 70.9466C38.1715 70.7047 38.1295 70.4745 38.0673 70.2326C37.9984 70.0075 37.9396 69.7824 37.8355 69.559C37.7498 69.3305 37.6289 69.1256 37.518 68.9139C37.4609 68.8098 37.3937 68.7123 37.3315 68.6099C37.2694 68.5091 37.2055 68.4083 37.135 68.3125C36.5924 67.5347 35.954 66.8393 35.3526 66.1186C34.7496 65.4013 34.1868 64.6386 33.8122 63.7785C33.6375 63.3451 33.5098 62.8899 33.4426 62.4262L33.399 62.0768C33.3805 61.9609 33.3872 61.8433 33.3805 61.7257C33.3771 61.6081 33.3721 61.4905 33.3704 61.3729L33.3839 61.0202C33.4275 60.0845 33.5804 59.1555 33.6207 58.2181C33.6207 58.2148 33.6207 58.2131 33.6207 58.2097C33.6207 58.2064 33.6207 58.2047 33.6207 58.2013C33.6409 57.7813 33.6627 57.3463 33.6812 56.9045C33.6913 56.6844 33.703 56.4626 33.7114 56.2426L33.7417 55.2582L33.7568 54.2738V53.2893L33.7349 52.4427C33.908 52.4376 34.0793 52.4292 34.2523 52.4259C35.5744 52.4024 36.8964 52.4528 38.2168 52.5233C39.5372 52.5989 40.8542 52.7165 42.1779 52.7787C43.5 52.8425 44.8321 52.8475 46.1508 52.6997C47.2897 52.5821 48.422 52.4074 49.5508 52.2159C49.524 52.7535 49.5609 53.291 49.6264 53.8202C49.8196 55.3002 50.2396 56.7281 50.6276 58.1425C50.7251 58.4987 50.8141 58.8447 50.9065 59.2093C50.9955 59.5587 51.1131 59.9333 51.2357 60.2793C51.4793 60.9815 51.7548 61.6636 51.9614 62.354C52.1647 63.0427 52.326 63.7483 52.2739 64.4404L52.252 64.6991C52.2436 64.7848 52.2201 64.8688 52.205 64.9528C52.1848 65.0368 52.1781 65.1241 52.1479 65.2048L52.0673 65.45C51.9497 65.7709 51.7884 66.08 51.5835 66.3756C51.1904 66.9619 50.7049 67.5146 50.2093 68.037C49.7087 68.5578 49.1645 69.0433 48.5832 69.4548C48.002 69.8563 47.3603 70.2108 46.7119 70.0882C46.3725 70.0512 46.0097 69.937 45.5897 69.9353C45.3797 69.9319 45.1597 69.9823 44.9598 70.068C44.8657 70.1201 44.7632 70.1638 44.6843 70.2326L44.5583 70.3284C44.5196 70.362 44.4861 70.4006 44.4491 70.4359L44.3416 70.5451L44.2492 70.6627L44.1568 70.7803C44.1467 70.7937 44.1467 70.792 44.1282 70.8172L44.1098 70.8458L44.0728 70.9046C44.0224 70.9819 43.972 71.0558 43.925 71.1532L43.8544 71.2926C43.8343 71.3397 43.8175 71.3884 43.799 71.4354C43.7234 71.6253 43.6831 71.8386 43.6848 72.0553C43.6831 72.2737 43.7536 72.4921 43.8544 72.6819C44.0694 73.0649 44.4222 73.3035 44.7699 73.4765C44.8573 73.5235 44.9497 73.5538 45.0387 73.5941C45.1328 73.6294 45.2151 73.6562 45.3193 73.6915C45.499 73.7385 45.6687 73.7923 45.8669 73.8242C46.2482 73.8981 46.6262 73.9317 47.0075 73.92C47.3872 73.9099 47.7651 73.8729 48.1347 73.794C48.8738 73.6445 49.5827 73.3807 50.2513 73.0548C51.5919 72.398 52.7946 71.5127 53.9218 70.5619C54.4863 70.0848 55.0305 69.5876 55.5664 69.0802C56.1006 68.5746 56.6348 68.0656 57.1505 67.5381C57.6662 67.0106 58.1534 66.4529 58.5918 65.8599C58.696 65.707 58.8119 65.5626 58.9043 65.403C58.9967 65.2434 59.0924 65.0855 59.1832 64.9242C59.3444 64.5983 59.5124 64.2439 59.4889 63.8642C59.4788 63.6761 59.4166 63.498 59.3595 63.3233C59.3007 63.1486 59.2453 62.9739 59.205 62.7958C59.1311 62.4363 59.0639 62.0734 59.0219 61.7089C58.9799 61.3444 58.9681 60.9714 59.0572 60.6153C59.1076 60.4389 59.1899 60.2726 59.3159 60.1382C59.4435 60.0038 59.6149 59.9282 59.7896 59.8762H59.7929V59.8711L59.8551 59.5402C59.8635 59.4848 59.887 59.4327 59.9021 59.3789L59.9525 59.2177C59.966 59.1639 59.9945 59.1135 60.0164 59.0614L60.0836 58.9069C60.1054 58.8548 60.1356 58.8078 60.1608 58.7574L60.2398 58.6079L60.5774 58.0233C60.5875 58.0048 60.5959 57.9863 60.606 57.9695C60.648 57.8922 60.69 57.815 60.7286 57.7326C60.7286 57.7293 60.732 57.7276 60.732 57.7242L60.7387 57.7091C60.7841 57.615 60.8261 57.5193 60.8647 57.4168C60.9 57.3227 60.9319 57.2287 60.9638 57.1346C60.9789 57.0892 60.9924 57.0422 61.0058 56.9952C61.0226 56.9414 61.0377 56.8877 61.0528 56.8339C61.0646 56.7902 61.0764 56.7465 61.0881 56.7029C61.1049 56.634 61.1217 56.5651 61.1368 56.4946C61.1435 56.4677 61.1486 56.4391 61.1553 56.4122C61.2914 55.7521 61.3317 55.0734 61.288 54.3997C62.1397 55.2548 62.9376 56.1687 63.7708 57.0523C64.678 58.0182 65.6389 58.9455 66.6988 59.7535C67.7538 60.5666 68.8793 61.2789 70.0266 61.9424C70.3122 62.1121 70.6012 62.2717 70.8901 62.4346C71.0329 62.5136 71.179 62.5993 71.3302 62.6748C71.4797 62.7504 71.6309 62.8227 71.7804 62.8932C72.3801 63.1738 72.9832 63.4442 73.5392 63.7785C73.8131 63.9465 74.0869 64.133 74.2817 64.3581C74.4749 64.5865 74.5858 64.8856 74.6429 65.193C74.7538 65.8145 74.6748 66.4731 74.5488 67.1081C74.2649 68.3797 73.8517 69.6497 73.1277 70.7282L73.1226 70.7349L73.1176 70.7433L72.9731 71.0323C72.5179 71.2372 72.1147 71.5446 71.809 71.9478C71.6528 72.1578 71.5284 72.3997 71.4663 72.6634C71.4025 72.9272 71.4109 73.2111 71.4915 73.4714C71.5335 73.6075 71.5822 73.7217 71.6511 73.8427C71.7199 73.9603 71.8073 74.0728 71.9148 74.1669C72.1282 74.3584 72.4121 74.4491 72.6758 74.4743C73.2066 74.5214 73.6955 74.4071 74.1692 74.3769C74.6547 74.3483 75.1485 74.3316 75.6458 74.2828C76.1363 74.2291 76.6638 74.1484 77.1207 73.8511C77.3458 73.7049 77.5356 73.5101 77.6885 73.2984C77.8414 73.0868 77.9606 72.86 78.0665 72.6298C78.2748 72.1679 78.4276 71.6925 78.5637 71.2187C78.8358 70.2679 79.066 69.3104 79.2692 68.3461C79.4725 67.3819 79.6455 66.4109 79.7766 65.4315C79.9042 64.4522 79.9949 63.4644 79.9748 62.4665L79.9966 62.4749ZM59.845 59.6611L59.8333 59.7183C59.8366 59.6981 59.84 59.6796 59.845 59.6611ZM59.6216 59.9417C59.6216 59.9417 59.6132 59.945 59.6082 59.9484C59.6132 59.9467 59.6166 59.945 59.6216 59.9417ZM6.04916 29.6971C6.04916 29.6971 6.05756 29.6971 6.06092 29.6971L6.05084 29.7055C6.05084 29.7055 6.05084 29.6988 6.05084 29.6971H6.04916ZM24.3496 57.605C24.3798 57.5445 24.41 57.484 24.4436 57.4235C24.4117 57.484 24.3815 57.5445 24.3496 57.605ZM24.3882 57.3849C24.5091 57.1346 24.6301 56.8961 24.7544 56.6676C24.6301 56.8994 24.5125 57.1329 24.3983 57.3698L24.3882 57.3849ZM24.9022 56.3954C24.8871 56.4206 24.872 56.4458 24.8586 56.4727C24.8737 56.4458 24.8888 56.4223 24.9022 56.3954ZM59.9189 59.3688C59.924 59.352 59.929 59.3352 59.9357 59.3184L59.9189 59.3688ZM60.0416 59.0396C60.0416 59.0396 60.0466 59.0278 60.05 59.0211L60.0416 59.0396Z" fill="#483838"/>
</svg>
